<svg width="50" height="50" viewBox="0 0 50 50" fill="none" xmlns="http://www.w3.org/2000/svg">
<path fill-rule="evenodd" clip-rule="evenodd" d="M6.54032 7.94906C6.77782 7.6645 7.12936 7.5 7.50001 7.5H42.5C42.8706 7.5 43.2221 7.6645 43.4596 7.94906C43.6971 8.23364 43.7961 8.60894 43.7299 8.97361L38.7299 36.4736C38.6529 36.8969 38.3636 37.2509 37.9643 37.4106L25.4643 42.4106C25.1663 42.5298 24.8338 42.5298 24.5358 42.4106L12.0358 37.4106C11.6363 37.2509 11.3471 36.8969 11.2702 36.4736L6.27017 8.97361C6.20387 8.60893 6.30282 8.23364 6.54032 7.94906ZM8.99778 10L13.6061 35.3461L25 39.9038L36.3939 35.3461L41.0023 10H8.99778ZM15 15C15 14.3096 15.5596 13.75 16.25 13.75H33.75C34.3298 13.75 34.8334 14.1486 34.9665 14.7127C35.0998 15.277 34.8275 15.8587 34.309 16.118L24.0451 21.25H32.5C32.8923 21.25 33.2618 21.4341 33.4979 21.7473C33.7341 22.0604 33.8096 22.4663 33.7019 22.8434L31.2019 31.5934C31.1056 31.9303 30.8724 32.2114 30.559 32.368L25.559 34.868C25.2071 35.044 24.7929 35.044 24.441 34.868L19.441 32.368C19.1445 32.2197 18.919 31.9598 18.8141 31.6453L17.5641 27.8953C17.3459 27.2404 17.6998 26.5325 18.3548 26.3141C19.0096 26.0959 19.7175 26.4497 19.9359 27.1047L21.0221 30.3635L25 32.3525L28.9491 30.3779L30.8429 23.75H18.75C18.1703 23.75 17.6666 23.3514 17.5334 22.7872C17.4003 22.223 17.6725 21.6413 18.191 21.382L28.4549 16.25H16.25C15.5596 16.25 15 15.6904 15 15Z" fill="#464646"/>
</svg>
