<svg width="50" height="50" viewBox="0 0 50 50" fill="none" xmlns="http://www.w3.org/2000/svg">
<g clip-path="url(#clip0_135941_60)">
<path d="M31.6406 31.6406C35.3081 31.6406 38.2812 28.6675 38.2812 25C38.2812 21.3325 35.3081 18.3594 31.6406 18.3594C27.9731 18.3594 25 21.3325 25 25C25 28.6675 27.9731 31.6406 31.6406 31.6406Z" stroke="#464646" stroke-width="2" stroke-linecap="round" stroke-linejoin="round"/>
<path d="M25 18.3593V5.07825H18.3594C16.5982 5.07825 14.9091 5.77788 13.6637 7.02324C12.4184 8.2686 11.7187 9.95767 11.7188 11.7189C11.7188 13.4801 12.4184 15.1691 13.6637 16.4145C14.9091 17.6599 16.5982 18.3595 18.3594 18.3595L25 18.3593Z" stroke="#464646" stroke-width="2" stroke-linecap="round" stroke-linejoin="round"/>
<path d="M25 18.3593V31.6404L18.3594 31.6406C16.5982 31.6406 14.9091 30.9409 13.6637 29.6956C12.4184 28.4502 11.7188 26.7612 11.7188 24.9999C11.7188 23.2387 12.4184 21.5497 13.6637 20.3043C14.9091 19.059 16.5982 18.3593 18.3594 18.3593H25ZM25 18.3593V5.07825H31.6406C33.4018 5.07825 35.0909 5.77788 36.3363 7.02324C37.5816 8.2686 38.2812 9.95767 38.2812 11.7189C38.2812 13.4801 37.5816 15.1691 36.3363 16.4145C35.0909 17.6599 33.4018 18.3595 31.6406 18.3595L25 18.3593Z" stroke="#464646" stroke-width="2" stroke-linecap="round" stroke-linejoin="round"/>
<path d="M25 31.6405V38.2812C25 39.5946 24.6106 40.8785 23.8809 41.9706C23.1512 43.0626 22.1141 43.9138 20.9007 44.4164C19.6873 44.919 18.3521 45.0506 17.0639 44.7943C15.7757 44.5381 14.5925 43.9057 13.6638 42.977C12.7351 42.0483 12.1026 40.865 11.8464 39.5769C11.5901 38.2887 11.7216 36.9535 12.2242 35.7401C12.7268 34.5266 13.578 33.4895 14.67 32.7598C15.7621 32.0301 17.046 31.6407 18.3594 31.6407L25 31.6405Z" stroke="#464646" stroke-width="2" stroke-linecap="round" stroke-linejoin="round"/>
</g>
<defs>
<clipPath id="clip0_135941_60">
<rect width="50" height="50" fill="white"/>
</clipPath>
</defs>
</svg>
