<svg width="50" height="50" viewBox="0 0 50 50" fill="none" xmlns="http://www.w3.org/2000/svg">
<path d="M35.547 8.36597H14.4532C12.8393 8.36762 11.2919 9.00946 10.1507 10.1506C9.00942 11.2918 8.36748 12.8391 8.36572 14.4531V35.5468C8.36748 37.1608 9.00942 38.7081 10.1507 39.8493C11.2919 40.9904 12.8393 41.6323 14.4532 41.6339H35.547C37.1608 41.6322 38.7081 40.9903 39.8493 39.8491C40.9904 38.7079 41.6323 37.1607 41.6341 35.5468V14.4531C41.6323 12.8392 40.9904 11.292 39.8493 10.1508C38.7081 9.00961 37.1608 8.36772 35.547 8.36597ZM40.6575 35.5468C40.6558 36.9017 40.1168 38.2006 39.1587 39.1586C38.2007 40.1166 36.9018 40.6556 35.547 40.6574H14.4532C13.0983 40.6557 11.7993 40.1168 10.8412 39.1587C9.88309 38.2007 9.34404 36.9018 9.34229 35.5468V14.4531C9.34404 13.0981 9.88309 11.7992 10.8412 10.8412C11.7993 9.88313 13.0983 9.34418 14.4532 9.34253H35.547C36.9018 9.34429 38.2007 9.88328 39.1587 10.8413C40.1168 11.7993 40.6558 13.0982 40.6575 14.4531V35.5468Z" fill="#464646"/>
<path d="M27.0818 25.5008C27.0121 25.3747 26.9506 25.2442 26.8978 25.1101C26.8449 24.9761 26.7834 24.8457 26.7138 24.7195C24.8732 20.1029 23.8916 17.6487 23.7689 17.357C23.4619 16.5904 22.8176 16.207 21.8361 16.207C21.4601 16.2049 21.0905 16.3042 20.7662 16.4945C20.4485 16.6716 20.2005 16.9515 20.063 17.2883L17.3048 24.0512C16.86 25.2017 16.1468 26.8583 15.165 29.0211C14.9415 29.4742 14.8088 29.9666 14.7744 30.4707C14.7582 30.6939 14.8006 30.9174 14.8974 31.1191C14.9942 31.3208 15.1421 31.4937 15.3263 31.6207C15.7164 31.8725 16.1735 32.0008 16.6377 31.9887C17.2512 31.9887 17.7113 31.6282 18.0181 30.9074L19.0076 28.2844H21.147C23.2483 28.2844 24.4447 28.2921 24.7361 28.3074L25.7943 31.0223C25.8997 31.3289 26.1034 31.5921 26.3738 31.771C26.6442 31.95 26.9662 32.0346 27.2896 32.0117C27.7431 32.0242 28.1867 31.8775 28.5435 31.5973C28.6954 31.4947 28.8213 31.3581 28.9111 31.1983C29.001 31.0385 29.0523 30.86 29.0611 30.6769C29.041 30.3339 28.9548 29.9979 28.8072 29.6875C28.5004 28.9979 27.9253 27.6023 27.0818 25.5008ZM19.8806 25.7769C21.0616 22.4329 21.7288 20.5233 21.8822 20.048C22.0509 20.5389 22.4037 21.5628 22.9404 23.1195C23.4771 24.6763 23.7766 25.5467 23.8388 25.7309C22.7031 25.7618 21.3837 25.7772 19.8806 25.7769ZM34.1798 25.2367C34.1874 24.0937 34.1835 23.2309 34.1681 22.648C34.1528 21.6819 33.6082 21.1988 32.5345 21.1988C32.1583 21.1916 31.7903 21.3089 31.4877 21.5324C31.3344 21.6541 31.2118 21.8102 31.1298 21.9879C31.0479 22.1657 31.0088 22.3602 31.0158 22.5559V30.7699C31.0042 30.9495 31.0382 31.129 31.1147 31.2919C31.1911 31.4548 31.3074 31.5957 31.4529 31.7016C31.7865 31.9215 32.181 32.0309 32.5802 32.0141C32.9989 32.0326 33.4106 31.9022 33.7423 31.6461C33.8938 31.5163 34.0131 31.3531 34.0909 31.1694C34.1687 30.9858 34.2029 30.7866 34.1908 30.5875L34.1677 27.8035C34.1685 27.235 34.1725 26.3794 34.1798 25.2367ZM32.6736 15.3086C32.2366 15.3107 31.8109 15.447 31.4541 15.6992C31.2666 15.8254 31.1068 15.9885 30.9844 16.1785C30.862 16.3685 30.7797 16.5814 30.7423 16.8043C30.697 17.0653 30.7085 17.3329 30.7759 17.589C30.8433 17.8452 30.9651 18.0838 31.133 18.2887C31.2969 18.4881 31.5047 18.6468 31.7402 18.7526C31.9757 18.8583 32.2325 18.9081 32.4904 18.898C33.0178 18.9201 33.5371 18.762 33.9627 18.4496C34.1569 18.2908 34.3105 18.0879 34.4105 17.8578C34.5105 17.6276 34.5541 17.3769 34.5377 17.1266C34.5533 16.6467 34.3798 16.18 34.0544 15.8269C33.8741 15.6478 33.6577 15.5089 33.4197 15.4196C33.1816 15.3302 32.9273 15.2924 32.6736 15.3086Z" fill="#464646"/>
</svg>
