<svg width="50" height="50" viewBox="0 0 50 50" fill="none" xmlns="http://www.w3.org/2000/svg">
<path fill-rule="evenodd" clip-rule="evenodd" d="M6.54032 7.94906C6.77782 7.6645 7.12936 7.5 7.50001 7.5H42.5C42.8706 7.5 43.2221 7.6645 43.4596 7.94906C43.6971 8.23364 43.7961 8.60894 43.7299 8.97361L38.7299 36.4736C38.6529 36.8969 38.3636 37.2509 37.9643 37.4106L25.4643 42.4106C25.1663 42.5298 24.8338 42.5298 24.5358 42.4106L12.0358 37.4106C11.6363 37.2509 11.3471 36.8969 11.2702 36.4736L6.27017 8.97361C6.20387 8.60893 6.30282 8.23364 6.54032 7.94906ZM8.99778 10L13.6061 35.3461L25 39.9038L36.3939 35.3461L41.0023 10H8.99778ZM18.75 15C18.75 14.3096 19.3096 13.75 20 13.75H22.5C23.1904 13.75 23.75 14.3096 23.75 15V33.75C23.75 34.1451 23.5631 34.517 23.2461 34.7529C22.9291 34.9887 22.5193 35.0609 22.1408 34.9472L15.8908 33.0722C15.4481 32.9395 15.1149 32.5733 15.0243 32.1201L14.3993 28.9951C14.2639 28.3183 14.7029 27.6596 15.3799 27.5242C16.0568 27.3889 16.7154 27.8279 16.8508 28.5049L17.3285 30.8935L21.25 32.07V16.25H20C19.3096 16.25 18.75 15.6904 18.75 15ZM26.25 15C26.25 14.3096 26.8096 13.75 27.5 13.75H33.75C34.4404 13.75 35 14.3096 35 15C35 15.6904 34.4404 16.25 33.75 16.25H28.75V22.3688L33.6256 21.8812C34.0079 21.843 34.3865 21.9826 34.6524 22.26C34.9183 22.5373 35.0418 22.9215 34.9874 23.3017L33.7374 32.0517C33.6729 32.504 33.3666 32.885 32.9389 33.0454L27.9389 34.9204C27.2925 35.1628 26.572 34.8353 26.3296 34.1889C26.0871 33.5425 26.4146 32.822 27.0611 32.5796L31.3674 30.9647L32.2869 24.5275L27.6244 24.9938C27.273 25.0289 26.9231 24.9138 26.6613 24.6769C26.3994 24.4399 26.25 24.1031 26.25 23.75V15Z" fill="#464646"/>
</svg>
